<?xml version="1.0" encoding="utf-8"?>
<!-- Generator: Adobe Illustrator 27.5.0, SVG Export Plug-In . SVG Version: 6.00 Build 0)  -->
<svg version="1.1" xmlns="http://www.w3.org/2000/svg" xmlns:xlink="http://www.w3.org/1999/xlink" x="0px" y="0px"
	 viewBox="0 0 750 500" style="enable-background:new 0 0 750 500;" xml:space="preserve">
<g id="BACKGROUND">
	<g>
		<rect style="fill:#FFFFFF;" width="750" height="500"/>
		<linearGradient id="SVGID_1_" gradientUnits="userSpaceOnUse" x1="106.6263" y1="250" x2="601.9839" y2="250">
			<stop  offset="0" style="stop-color:#8AB9FD"/>
			<stop  offset="1" style="stop-color:#0056E9"/>
		</linearGradient>
		<path style="opacity:0.1;fill:url(#SVGID_1_);" d="M264.567,113.903c-13.625,13.198-23.834,30.339-40.164,39.99
			c-16.415,9.702-36.505,10.343-54.568,16.452c-31.486,10.647-56.134,39.362-61.888,72.097
			c-5.754,32.736,7.627,68.134,33.595,88.879c13.769,10.999,30.387,17.892,44.574,28.347c25.217,18.585,45.128,49.339,76.361,51.74
			c21.753,1.672,41.832-11.572,63.46-14.446c13.38-1.778,26.941,0.471,40.196,3.02c44.899,8.634,92.158,20.66,135.288,5.486
			c41.509-14.604,71.286-52.632,86.955-93.75c12.849-33.718,17.647-71.045,9.819-106.269c-7.828-35.225-29.007-68.031-60.001-86.508
			c-32.792-19.549-73.274-21.809-111.11-16.718c-14.947,2.011-30.978,5.064-45.896,1.292c-13.155-3.326-22.858-12.387-36.637-14.9
			C315.988,83.404,285.267,93.85,264.567,113.903z"/>
	</g>
</g>
<g id="OBJECTS">
	<g>
		<path d="M180.716,432.195c0,0-26.719-26.8-35.91-59.613c0,0,25.787,20.473,46.723,51.698L180.716,432.195z"/>
		
			<linearGradient id="SVGID_00000137132322366870621810000014079329971335257229_" gradientUnits="userSpaceOnUse" x1="633.9439" y1="456.8388" x2="617.676" y2="406.8732">
			<stop  offset="0" style="stop-color:#53B0B1"/>
			<stop  offset="1" style="stop-color:#6ACAD8"/>
		</linearGradient>
		<path style="fill:url(#SVGID_00000137132322366870621810000014079329971335257229_);" d="M601.859,455.506
			c0,0,6.716-37.195,35.24-54.204c0,0,0,25.907-13.346,45.534c0,0,16.225-7.065,36.113-7.589c0,0-8.025,11.846-29.004,16.26"/>
		
			<linearGradient id="SVGID_00000114033504630458455180000008274776096280393901_" gradientUnits="userSpaceOnUse" x1="7095.4712" y1="451.0885" x2="7095.4712" y2="354.407" gradientTransform="matrix(-1 0 0 1 7294.2393 0)">
			<stop  offset="0" style="stop-color:#53B0B1"/>
			<stop  offset="1" style="stop-color:#6ACAD8"/>
		</linearGradient>
		<path style="fill:url(#SVGID_00000114033504630458455180000008274776096280393901_);" d="M240.122,455.506
			c0,0,47.724-37.472,50.788-75.328c0,0-29.936,2.166-70.06,44.735c0,0,27.506-38.739,27.991-74.888
			c0,0-30.227,17.438-44.983,68.228c0,0-10.287-37.817-36.84-59.079c0,0-1.277,27.574,13.611,63.574
			c0,0-30.973-30.128-69.062-37.626c0,0,16.131,32.265,59.28,54.477c0,0-36.428-11.256-64.222-9.383c0,0,9.729,13.021,48.871,25.289
			"/>
	</g>
	<g>
		
			<linearGradient id="SVGID_00000031893865240092382430000009362454605476554394_" gradientUnits="userSpaceOnUse" x1="362.1082" y1="248.6205" x2="362.1082" y2="375.2954">
			<stop  offset="0" style="stop-color:#8AB9FD"/>
			<stop  offset="1" style="stop-color:#0056E9"/>
		</linearGradient>
		<path style="fill:url(#SVGID_00000031893865240092382430000009362454605476554394_);" d="M362.108,268.467H234.184
			c-10.763,0-18.988,9.603-17.334,20.239l14.269,91.73h130.99h130.99l14.268-91.73c1.654-10.635-6.571-20.239-17.334-20.239H362.108
			z"/>
		<g>
			
				<linearGradient id="SVGID_00000064345183615971073460000005151792510267197861_" gradientUnits="userSpaceOnUse" x1="209.8589" y1="316.6322" x2="210.6313" y2="447.5557">
				<stop  offset="0" style="stop-color:#8AB9FD"/>
				<stop  offset="1" style="stop-color:#0056E9"/>
			</linearGradient>
			<path style="fill:url(#SVGID_00000064345183615971073460000005151792510267197861_);" d="M215.824,455.506l-35.692-98.014
				c-5.765-15.831,1.806-33.412,17.269-40.102l0,0c21.014-9.091,44.465,6.315,44.465,29.211v108.905H215.824z"/>
			
				<linearGradient id="SVGID_00000153666317588562398140000015304982048370487486_" gradientUnits="userSpaceOnUse" x1="7222.4121" y1="316.6322" x2="7223.1846" y2="447.5557" gradientTransform="matrix(-1 0 0 1 7735.5342 0)">
				<stop  offset="0" style="stop-color:#8AB9FD"/>
				<stop  offset="1" style="stop-color:#0056E9"/>
			</linearGradient>
			<path style="fill:url(#SVGID_00000153666317588562398140000015304982048370487486_);" d="M507.156,455.506l35.692-98.014
				c5.765-15.831-1.806-33.412-17.269-40.102l0,0c-21.014-9.091-44.466,6.315-44.466,29.211v108.905H507.156z"/>
		</g>
		
			<linearGradient id="SVGID_00000058560754773277913030000000712149153890509231_" gradientUnits="userSpaceOnUse" x1="361.2483" y1="372.9659" x2="361.7107" y2="451.3407">
			<stop  offset="0" style="stop-color:#8AB9FD"/>
			<stop  offset="1" style="stop-color:#0056E9"/>
		</linearGradient>
		
			<rect x="241.867" y="372.537" style="fill:url(#SVGID_00000058560754773277913030000000712149153890509231_);" width="239.247" height="82.969"/>
		
			<linearGradient id="SVGID_00000029734182687981790550000012305617370823357118_" gradientUnits="userSpaceOnUse" x1="361.4905" y1="397.2162" x2="361.4905" y2="454.2844">
			<stop  offset="0" style="stop-color:#8AB9FD"/>
			<stop  offset="1" style="stop-color:#0056E9"/>
		</linearGradient>
		
			<rect x="241.867" y="442.045" style="opacity:0.3;fill:url(#SVGID_00000029734182687981790550000012305617370823357118_);" width="239.247" height="13.461"/>
	</g>
	<g>
		<g>
			<path style="fill:#FFFFFF;" d="M286.253,372.533c0,0-1.13,0.11-3.06,0H286.253z"/>
			
				<linearGradient id="SVGID_00000150801831136502000760000013213724333501622156_" gradientUnits="userSpaceOnUse" x1="428.0668" y1="264.9608" x2="428.0668" y2="350.9402">
				<stop  offset="0" style="stop-color:#FFCBCA"/>
				<stop  offset="1" style="stop-color:#E994A8"/>
			</linearGradient>
			<path style="fill:url(#SVGID_00000150801831136502000760000013213724333501622156_);" d="M478.141,364.848
				c-1.515-0.932-3.574-0.255-6.239-0.375c-0.93-0.042-1.291-0.239-1.964-0.62c-2.11-1.198-11.576-6.957-13.914-8.212
				c-2.338-1.255-6.594-2.653-7.642-3.365c-1.713-1.164-2.786-3.458-3.522-5.732c-4.366-17.387-16.812-62.617-29.416-80.818
				c-3.731-5.387-9.957-6.255-15.957-3.83c-5.526,2.234-22.532,16.851-22.532,16.851l17.17,21.383
				c-0.929,18.638,30.975,51.164,30.975,51.164c0.012,0.569-0.062,1.191-0.327,1.838c-1.415,3.449-3.51,8.434-3.65,10.664
				c-0.228,3.65,0.769,7.558,2.794,8.74h54.402C478.321,372.537,480.366,366.217,478.141,364.848z"/>
			
				<linearGradient id="SVGID_00000049901014194183857430000011022530246213860526_" gradientUnits="userSpaceOnUse" x1="343.294" y1="348.7565" x2="386.8279" y2="293.3955">
				<stop  offset="0" style="stop-color:#E6832C"/>
				<stop  offset="1" style="stop-color:#E9A347"/>
			</linearGradient>
			<path style="fill:url(#SVGID_00000049901014194183857430000011022530246213860526_);" d="M331.823,314.743l46.536-37.958
				c0,0,20.681,13.261,27.383,41.158l-42.128,33.315l-38.403-7.995L331.823,314.743z"/>
			<path style="fill:none;stroke:#000000;stroke-width:0.5;stroke-linecap:round;stroke-miterlimit:10;" d="M354.305,330.696
				c0,0,23.001-16.974,40.331-33.948"/>
			<polygon points="396.223,325.473 363.613,351.263 352.433,348.933 347.023,331.603 			"/>
			
				<linearGradient id="SVGID_00000064351708265973289620000013308279038506709934_" gradientUnits="userSpaceOnUse" x1="438.8062" y1="339.2587" x2="438.8062" y2="440.7597">
				<stop  offset="0" style="stop-color:#FFCBCA"/>
				<stop  offset="1" style="stop-color:#E994A8"/>
			</linearGradient>
			<path style="fill:url(#SVGID_00000064351708265973289620000013308279038506709934_);" d="M483.758,446.285
				c-1.515-0.932-3.574-0.255-6.239-0.375c-0.93-0.042-1.291-0.239-1.964-0.62c-2.11-1.198-11.576-6.957-13.914-8.212
				c-2.338-1.255-6.594-2.653-7.642-3.365c-1.713-1.164-2.786-3.458-3.522-5.732c-5.659-22.533-24.211-84.159-28.362-88.436
				c-3.16-3.255-29.011-5.984-29.011-5.984l-0.287,39.016l8.713-0.041c-0.929,18.638,29.189,60.195,29.189,60.195
				c0.012,0.569-0.062,1.191-0.327,1.838c-1.415,3.449-3.51,8.434-3.65,10.664c-0.228,3.65,0.769,7.558,2.794,8.74h54.402
				C483.938,453.974,485.983,447.654,483.758,446.285z"/>
			
				<linearGradient id="SVGID_00000042003427956548850750000014348457420709525163_" gradientUnits="userSpaceOnUse" x1="322.4348" y1="348.677" x2="403.7981" y2="363.4702">
				<stop  offset="0" style="stop-color:#E6832C"/>
				<stop  offset="1" style="stop-color:#E9A347"/>
			</linearGradient>
			<path style="fill:url(#SVGID_00000042003427956548850750000014348457420709525163_);" d="M402.293,359.793l-8.14,1.39l7.18,3.26
				c-2.09,9.29-5.45,18.89-10.84,25.79l-39.9-17.7h-31.19l8.4-47.64l77.01,9.58C404.813,334.473,404.813,346.233,402.293,359.793z"
				/>
			<path style="fill:none;stroke:#000000;stroke-width:0.5;stroke-linecap:round;stroke-miterlimit:10;" d="M324.04,352.791
				c0,0,27.83,0.128,36.894,1.021c9.064,0.894,31.883,6.766,31.883,6.766"/>
			<path d="M340.684,340.599c3.686,4.548,3.744,12.476,3.744,12.476l4.585,0.123c0,0,0.549-8.68-4.786-15.424
				c-5.984-7.564-14.745-7.995-14.745-7.995l-0.637,4.333C328.844,334.113,335.778,334.547,340.684,340.599z"/>
			<g>
				<path d="M340.494,274.991l-12.374-4.374c-1.806-0.638-2.689-2.677-1.918-4.431l15.117-34.413
					c0.845-1.924,2.747-3.168,4.849-3.17l15.163-0.016c1.793-0.002,2.986,1.853,2.24,3.484l-18.813,41.114
					C344.018,274.799,342.169,275.583,340.494,274.991z"/>
				
					<linearGradient id="SVGID_00000111158510155114954280000008892588267454433708_" gradientUnits="userSpaceOnUse" x1="345.5033" y1="208.8633" x2="342.4395" y2="264.2675">
					<stop  offset="0" style="stop-color:#8AB9FD"/>
					<stop  offset="1" style="stop-color:#0056E9"/>
				</linearGradient>
				<path style="fill:url(#SVGID_00000111158510155114954280000008892588267454433708_);" d="M340.057,273.996
					c-0.275,0-0.548-0.047-0.811-0.14l-12.373-4.374c-0.608-0.215-1.085-0.66-1.342-1.251c-0.256-0.592-0.254-1.243,0.006-1.834
					l15.117-34.414c0.685-1.561,2.23-2.57,3.935-2.572l15.163-0.016c0.509,0,0.956,0.245,1.23,0.671
					c0.273,0.426,0.31,0.936,0.099,1.397l-18.814,41.114C341.874,273.439,341.006,273.996,340.057,273.996z"/>
				<g>
					
						<linearGradient id="SVGID_00000022545130252309059300000010674364938768010923_" gradientUnits="userSpaceOnUse" x1="320.4367" y1="229.7364" x2="342.1388" y2="281.0556">
						<stop  offset="0" style="stop-color:#8AB9FD;stop-opacity:0.6"/>
						<stop  offset="1" style="stop-color:#0056E9"/>
					</linearGradient>
					<path style="fill:url(#SVGID_00000022545130252309059300000010674364938768010923_);" d="M334.833,245.223l11.32,18.88
						l-3.88,8.47c-0.4,0.87-1.27,1.42-2.22,1.42c-0.27,0-0.54-0.04-0.81-0.14l-12.37-4.37c-0.61-0.22-1.08-0.66-1.34-1.25
						c-0.26-0.59-0.26-1.24,0-1.84L334.833,245.223z"/>
					
						<linearGradient id="SVGID_00000017488760084664068630000011373949011537590686_" gradientUnits="userSpaceOnUse" x1="335.8959" y1="223.199" x2="357.598" y2="274.5182">
						<stop  offset="0" style="stop-color:#8AB9FD"/>
						<stop  offset="1" style="stop-color:#0056E9"/>
					</linearGradient>
					<polygon style="fill:url(#SVGID_00000017488760084664068630000011373949011537590686_);" points="340.223,232.963 
						351.663,252.053 349.703,256.343 338.303,237.323 					"/>
					
						<linearGradient id="SVGID_00000177465081249626011920000007229336816434369194_" gradientUnits="userSpaceOnUse" x1="347.1491" y1="218.4402" x2="368.8513" y2="269.7593">
						<stop  offset="0" style="stop-color:#8AB9FD"/>
						<stop  offset="1" style="stop-color:#0056E9"/>
					</linearGradient>
					<path style="fill:url(#SVGID_00000177465081249626011920000007229336816434369194_);" d="M361.083,231.463l-7.39,16.15
						l-10.71-17.88c0.5-0.21,1.04-0.32,1.61-0.32l15.16-0.02c0.51,0,0.96,0.25,1.23,0.67
						C361.253,230.493,361.293,231.003,361.083,231.463z"/>
				</g>
			</g>
			
				<linearGradient id="SVGID_00000159447854149732409090000005699325639665923983_" gradientUnits="userSpaceOnUse" x1="337.2806" y1="236.3529" x2="278.3018" y2="289.97">
				<stop  offset="0" style="stop-color:#FFCBCA"/>
				<stop  offset="1" style="stop-color:#E994A8"/>
			</linearGradient>
			<path style="fill:url(#SVGID_00000159447854149732409090000005699325639665923983_);" d="M333.375,251.421
				c1.618-1.379,1.929-3.755,0.618-4.387c-1.624-0.783-4.831,0.701-18.492,3.516c-6.272,1.292-12.238,3.312-20.781,10.579
				c-9.531,8.107-23.34,19.351-23.34,19.351s14.968,16.569,15.179,16.917c0.211,0.347,22.245-30.979,22.245-30.979
				s3.066,0.881,5.904,0.534l0,0.006c0,0,6.051-0.791,8.327-2.132c3.495-2.059,3.543-4.835,2.011-5.266
				c-0.82-0.231-2.585-0.287-4.025-0.401c0.597-2.114,0.513-2.898,0.513-2.898S331.757,252.801,333.375,251.421z"/>
			<g>
				
					<linearGradient id="SVGID_00000142154387397506025730000010737424470683931034_" gradientUnits="userSpaceOnUse" x1="222.7334" y1="208.158" x2="310.6984" y2="208.158">
					<stop  offset="0" style="stop-color:#E4816F"/>
					<stop  offset="1" style="stop-color:#E25E52"/>
				</linearGradient>
				<path style="fill:url(#SVGID_00000142154387397506025730000010737424470683931034_);" d="M300.693,262.223
					c2.76,6.76,5.13,12.59,3.3,16.52c-0.74,1.6-2.14,2.73-4.16,3.38c-0.8,0.26-1.63,0.42-2.46,0.47c0.54-0.77,1.09-1.55,1.63-2.31
					c0.07-0.02,0.15-0.04,0.22-0.06c1.49-0.48,2.45-1.24,2.96-2.32c1.46-3.14-0.87-8.86-3.34-14.93c-1.25-3.06-2.53-6.22-3.46-9.34
					c-4.53-15.2,1.42-28.77,6.67-40.75c4.97-11.34,9.26-21.13,4.79-30.47c-5.37-11.2-19.96-13.86-35.42-16.67
					c-19.86-3.61-42.37-7.71-48.69-31.5l1.93-0.52c5.99,22.57,26.9,26.37,47.12,30.05c15.97,2.91,31.06,5.65,36.86,17.78
					c4.87,10.16,0.19,20.83-4.76,32.13c-5.36,12.24-10.9,24.89-6.59,39.38C298.193,256.083,299.473,259.203,300.693,262.223z"/>
				
					<linearGradient id="SVGID_00000069378934768027626560000012865646781896919182_" gradientUnits="userSpaceOnUse" x1="269.2637" y1="280.1342" x2="279.3032" y2="280.1342">
					<stop  offset="0" style="stop-color:#E4816F"/>
					<stop  offset="1" style="stop-color:#E25E52"/>
				</linearGradient>
				<path style="fill:url(#SVGID_00000069378934768027626560000012865646781896919182_);" d="M279.303,273.993
					c-0.6,0.49-1.19,0.97-1.74,1.43c-1.33-0.52-2.58-0.69-3.43-0.46c-1.27,0.34-2.09,1-2.52,2c-1.19,2.82,0.95,7.79,1.87,9.47
					l-1.75,0.97c-0.15-0.28-3.78-6.93-1.96-11.22c0.67-1.58,1.96-2.65,3.84-3.15C275.143,272.623,277.183,272.973,279.303,273.993z"
					/>
			</g>
			
				<linearGradient id="SVGID_00000119799585891102128040000004931383959657921461_" gradientUnits="userSpaceOnUse" x1="321.766" y1="255.3495" x2="316.8921" y2="259.7803">
				<stop  offset="0" style="stop-color:#FFCBCA"/>
				<stop  offset="1" style="stop-color:#E994A8"/>
			</linearGradient>
			<path style="fill:url(#SVGID_00000119799585891102128040000004931383959657921461_);" d="M321.023,259.163
				c0,0-3.88-0.1-4.83-0.36c-0.47-0.13-0.26-1.17,0.06-1.58c0.45,0.08,1.89,0.23,5.28-0.96
				C321.533,256.263,321.613,257.043,321.023,259.163z"/>
			<path style="fill:#FFFFFF;" d="M331.823,314.743c0,0,0,39.069-12.42,57.79h-33.15c0,0-1.13,0.11-3.06,0
				c-5.51-0.3-17.56-2.34-28.34-13.55c-14.56-15.13-28.9-53.45-27.83-72.96c1.02-18.76,20.55-26.62,32.23-20.87
				c11.68,5.74,33.32,33.51,44.23,40.02C314.403,311.683,331.823,314.743,331.823,314.743z"/>
			<path d="M238.975,298.849c0,0,3.105,15.255,15.361,29.872c1.117-0.431,2.75-1.661,3.577-2.324
				c17.569,11.234,25.955,10.325,25.955,10.325L238.975,298.849z"/>
			<path d="M485.619,455.506h-58.392c-0.761,0-1.379-0.617-1.379-1.379l0,0c0-0.762,0.617-1.379,1.379-1.379h58.392
				c0.761,0,1.379,0.617,1.379,1.379l0,0C486.997,454.888,486.38,455.506,485.619,455.506z"/>
			<path d="M435.551,452.748c0,0,8.745-17.681,23.521-16.787c10.64,0.643,18.447,9.95,18.447,9.95h-1.979
				c0,0-9.737-7.843-15.578-7.843c-6.922,0-14.007,5.649-17.646,15.319"/>
			<path d="M412.885,452.748h-8.1v-5.767c0-0.708-0.267-1.389-0.757-1.899c-2.202-2.294-9.001-8.596-17.689-9.121
				c-14.776-0.894-23.521,16.787-23.521,16.787h-8.324c-0.761,0-1.378,0.617-1.378,1.379v0c0,0.761,0.617,1.379,1.378,1.379h58.392
				c0.762,0,1.379-0.617,1.379-1.379v0C414.263,453.365,413.646,452.748,412.885,452.748z M402.806,452.748h-20.82
				c1.385-6.697,6.246-10.704,10.823-10.704c3.033,0,7.362,3.358,9.258,4.962c0.471,0.399,0.739,0.982,0.739,1.599V452.748z
				 M387.228,438.067c2.668,0,6.146,1.637,9.141,3.414c-1.285-0.523-2.678-0.899-4.168-0.997
				c-9.415-0.618-15.24,10.761-15.966,12.263h-6.392C373.55,443.475,380.462,438.067,387.228,438.067z"/>
			<path d="M272.609,214.073c0,0,9.144-3.59,10.676-0.239c1.783,3.899-7.803,8.761-7.803,8.761L272.609,214.073z"/>
			
				<linearGradient id="SVGID_00000176740210714145384010000009801021630413285284_" gradientUnits="userSpaceOnUse" x1="262.236" y1="206.3268" x2="255.9169" y2="266.4544">
				<stop  offset="0" style="stop-color:#FFCBCA"/>
				<stop  offset="1" style="stop-color:#E994A8"/>
			</linearGradient>
			<path style="fill:url(#SVGID_00000176740210714145384010000009801021630413285284_);" d="M265.687,206.965
				c0,0-12.129-5.71-20.906,4.434c-7.029,8.123-8.784,18.695-3.423,29.301l-7.708,29.868c0,0,14.209,2.851,28.762,0.808l-2.599-13.3
				c8.285,2.309,14.234-3.2,16.419-6.386C282.158,243.053,286.252,216.426,265.687,206.965z"/>
			<path d="M280.508,207.322c-0.483-1.076-1.166-1.829-2.023-2.39c1.927-1.535,2.416-4.086,0.874-5.174
				c-2.681-1.892-12.543,2.298-12.543,2.298s2.888-4.344,0.479-5.362c-4.308-1.819-12.862,3.683-12.885,3.694c0,0-0.001,0-0.001,0
				c0.003-0.006,3.311-4.747,0-5.8c-2.918-0.928-11.305,1.906-14.784,6.128c-3.83,4.648-2.585,7.372-2.585,7.372
				s-9.792,0.353-10.213,10.213c-0.447,10.468,9.547,33.255,9.547,33.255l4.879-0.766l5.553-13.021c0,0-4.021-4.021-2.585-8.33
				c1.436-4.309,6.319-4.213,8.617-0.67c0,0,1.436,0.383,3.351-1.053c1.915-1.436,2.585-7.181,2.585-7.181s8.904-0.287,14.361-2.106
				C278.593,216.61,282.615,212.014,280.508,207.322z"/>
			
				<linearGradient id="SVGID_00000083079594007739439930000000635714790274332330_" gradientUnits="userSpaceOnUse" x1="349.2044" y1="243.8811" x2="288.6939" y2="314.3492">
				<stop  offset="0" style="stop-color:#FFCBCA"/>
				<stop  offset="1" style="stop-color:#E994A8"/>
			</linearGradient>
			<path style="fill:url(#SVGID_00000083079594007739439930000000635714790274332330_);" d="M351.499,256.979
				c-1.291,2.072-9.783,9.326-9.783,9.326l-1.291-1.618c0,0,2.354-8.838,2.668-11.598c0.351-3.089-2.681-5.238-5.17-1.021
				c-2.489,4.217-5.842,8.812-6.351,12.287c-0.383,2.617-0.843,8.378-0.843,8.378l-42.944,35.907l-10.532-12.37l-22.117,23.745
				c0,0,24.702,23.936,40.117,15.032c15.285-8.829,47.92-55.005,47.92-55.005s12.294-9.845,12.878-10.723
				c1.578-2.374,4.691-14.984,4.261-18c-0.449-3.147-1.839-8.104-1.839-8.104S352.79,254.907,351.499,256.979z"/>
			<path style="fill:#FFFFFF;" d="M236.394,287.684c0.541,11.362,9.222,26.032,18.732,36.767c0,0,16.09-9.193,27.768-23.555
				c0,0-15.173-20.744-23.25-25.133C248.13,269.508,235.811,275.445,236.394,287.684z"/>
			<path d="M259.814,258.076c0,0-9.497-2.881-12.05-12.711c0,0-1.404,13.213,13.148,18.332L259.814,258.076z"/>
			<path d="M287.783,308.643c0,0-3.08,3.68-4.89,7c-1.55,2.85,0.2-3.75,3.27-8.91L287.783,308.643z"/>
		</g>
		<g>
			<g>
				
					<rect x="365.547" y="81.218" transform="matrix(0.9895 0.1443 -0.1443 0.9895 22.3549 -57.6286)" style="fill:#FFFFFF;stroke:#000000;stroke-miterlimit:10;" width="85.863" height="88.171"/>
				
					<linearGradient id="SVGID_00000022527842879425098300000005662120319923821726_" gradientUnits="userSpaceOnUse" x1="610.8661" y1="1253.3768" x2="630.5951" y2="1339.447" gradientTransform="matrix(0.9352 0.3541 -0.3541 0.9352 287.1048 -1307.4738)">
					<stop  offset="0" style="stop-color:#8AB9FD"/>
					<stop  offset="1" style="stop-color:#0056E9"/>
				</linearGradient>
				<polygon style="opacity:0.5;fill:url(#SVGID_00000022527842879425098300000005662120319923821726_);" points="442.544,160.083 
					365.9,148.906 374.257,91.593 450.901,102.769 				"/>
				
					<linearGradient id="SVGID_00000108305798801086455870000014774363990982267581_" gradientUnits="userSpaceOnUse" x1="590.5636" y1="1251.2302" x2="610.9391" y2="1340.3186" gradientTransform="matrix(0.9352 0.3541 -0.3541 0.9352 287.1048 -1307.4738)">
					<stop  offset="0" style="stop-color:#8AB9FD"/>
					<stop  offset="1" style="stop-color:#0056E9"/>
				</linearGradient>
				<polygon style="fill:url(#SVGID_00000108305798801086455870000014774363990982267581_);" points="403.425,164.178 
					364.501,158.502 365.298,153.031 404.223,158.707 				"/>
				<g>
					
						<linearGradient id="SVGID_00000052802906546467414060000003203803767026433434_" gradientUnits="userSpaceOnUse" x1="576.1663" y1="1254.5021" x2="596.5466" y2="1343.6116" gradientTransform="matrix(0.9352 0.3541 -0.3541 0.9352 287.1048 -1307.4738)">
						<stop  offset="0" style="stop-color:#8AB9FD"/>
						<stop  offset="1" style="stop-color:#0056E9"/>
					</linearGradient>
					<path style="fill:url(#SVGID_00000052802906546467414060000003203803767026433434_);" d="M384.048,85.037
						c-0.35,2.403-2.583,4.068-4.987,3.717c-2.404-0.35-4.068-2.583-3.717-4.987c0.35-2.404,2.583-4.068,4.987-3.717
						S384.398,82.633,384.048,85.037z"/>
					
						<linearGradient id="SVGID_00000024723037918395788630000000532781880446086554_" gradientUnits="userSpaceOnUse" x1="592.7614" y1="1250.7086" x2="613.1382" y2="1339.8026" gradientTransform="matrix(0.9352 0.3541 -0.3541 0.9352 287.1048 -1307.4738)">
						<stop  offset="0" style="stop-color:#8AB9FD"/>
						<stop  offset="1" style="stop-color:#0056E9"/>
					</linearGradient>
					<path style="fill:url(#SVGID_00000024723037918395788630000000532781880446086554_);" d="M404.92,89.61l-17.194-2.507
						c-0.827-0.121-1.4-0.889-1.28-1.716l0,0c0.121-0.827,0.889-1.4,1.716-1.28l17.194,2.507c0.827,0.121,1.4,0.889,1.279,1.716l0,0
						C406.516,89.158,405.747,89.731,404.92,89.61z"/>
				</g>
			</g>
			<g>
				
					<linearGradient id="SVGID_00000152967700238947746540000015262194113308158864_" gradientUnits="userSpaceOnUse" x1="422.716" y1="115.7916" x2="331.8225" y2="286.8555">
					<stop  offset="0" style="stop-color:#E4816F"/>
					<stop  offset="1" style="stop-color:#E25E52"/>
				</linearGradient>
				<path style="fill:url(#SVGID_00000152967700238947746540000015262194113308158864_);" d="M434.253,151.473
					c-10.55,28.46-39.31,32.74-62.42,36.19c-14.64,2.18-26.21,3.9-28.12,11.17c-2.77,10.5,8.27,18.45,19.97,26.85
					c11.13,8.01,22.65,16.29,22.73,27.6c0.04,5.83-1.76,10.6-5.35,14.16c-6.33,6.27-18.05,9.05-37,8.74
					c-2.04-0.03-4.18-0.13-6.25-0.23c-8.72-0.41-17.74-0.84-19.75,3.82c-0.4,0.93-0.41,2.11-0.03,3.58l-1.67,1.39
					c-0.76-2.32-0.81-4.21-0.14-5.76c2.56-5.94,12.29-5.47,21.68-5.03c2.06,0.1,4.19,0.2,6.2,0.23c18.33,0.31,29.63-2.29,35.55-8.16
					c3.24-3.21,4.8-7.38,4.76-12.73c-0.07-10.28-11.17-18.26-21.9-25.98c-11.73-8.43-23.85-17.16-20.74-28.99
					c2.25-8.54,14.39-10.35,29.76-12.64c22.59-3.37,50.71-7.56,60.85-34.91c1.28-3.45,7.28-21.32-0.16-34.08
					c-3.68-6.31-10.15-10.26-19.24-11.72c-13.28-2.15-23.58,2.11-28.27,11.68c-4.08,8.34-2.73,18.77,3.15,24.26
					c8.85,8.26,20.58,7.86,28.27,3.81c7.27-3.84,11.13-10.58,10.07-17.61c-1.43-9.47-10.26-14.17-17.85-14.53
					c-5.83-0.28-13.28,1.97-15.09,9.24c-1.58,6.3,0.57,11.8,5.74,14.71c4.88,2.74,10.74,2.17,14.26-1.39
					c2.33-2.35,3.16-5.15,2.34-7.91c-0.81-2.74-3.12-4.97-5.76-5.54c-2.14-0.47-4.18,0.25-5.74,2.03c-1.14,1.3-1.05,2.54-0.77,3.35
					c0.41,1.19,1.5,2.19,2.66,2.41c0.64,0.12,1.56,0.07,2.39-0.89c0.36-0.42,1-0.47,1.41-0.11c0.42,0.36,0.47,1,0.1,1.41
					c-1.13,1.32-2.65,1.87-4.28,1.55c-1.86-0.36-3.54-1.85-4.18-3.72c-0.62-1.83-0.2-3.76,1.16-5.31c2.07-2.36,4.8-3.31,7.68-2.68
					c3.33,0.73,6.24,3.52,7.25,6.94c1.03,3.48,0.02,6.99-2.84,9.88c-4.15,4.2-11,4.91-16.66,1.72c-4.64-2.61-8.83-8.42-6.7-16.93
					c1.73-6.95,8.47-11.17,17.12-10.76c8.39,0.4,18.14,5.65,19.73,16.23c1.2,7.9-3.06,15.43-11.11,19.68
					c-8.32,4.38-21,4.81-30.57-4.12c-6.49-6.06-8.03-17.5-3.57-26.6c2.41-4.93,10.21-16.04,30.38-12.78
					c9.71,1.57,16.65,5.84,20.65,12.69C441.843,129.223,435.593,147.873,434.253,151.473z"/>
				
					<linearGradient id="SVGID_00000082332357471497157300000001688300874995619759_" gradientUnits="userSpaceOnUse" x1="411.7102" y1="109.9443" x2="320.8172" y2="281.0075">
					<stop  offset="0" style="stop-color:#E4816F"/>
					<stop  offset="1" style="stop-color:#E25E52"/>
				</linearGradient>
				<path style="fill:url(#SVGID_00000082332357471497157300000001688300874995619759_);" d="M325.433,308.483
					c-0.8,0.76-1.74,1.09-2.79,1.09c-3.25,0-7.56-3.16-12.06-6.46c-5.21-3.81-11.11-8.14-14.58-6.77c-1.98,0.77-2.05,4.07-1.68,6.83
					l-1.8,1.51c-0.62-3.24-1.04-8.72,2.75-10.21c4.5-1.76,10.6,2.71,16.49,7.03c5.03,3.68,10.23,7.49,12.29,5.53
					c0.86-0.81,1.26-1.85,1.2-3.18c0.57-0.72,1.13-1.44,1.69-2.15C327.673,304.603,327.183,306.833,325.433,308.483z"/>
			</g>
		</g>
		<g>
			<path style="fill:#FFFFFF;" d="M251.37,128.001l-54.907,15.972c-1.894,0.551-3.877-0.538-4.428-2.432l-15.972-54.907
				c-0.551-1.894,0.538-3.877,2.432-4.428l54.907-15.972c1.894-0.551,3.877,0.538,4.428,2.432l15.972,54.907
				C254.353,125.468,253.264,127.45,251.37,128.001z"/>
			
				<linearGradient id="SVGID_00000017510835612281786580000018134226253221326983_" gradientUnits="userSpaceOnUse" x1="197.2963" y1="74.267" x2="221.2962" y2="154.1819">
				<stop  offset="0" style="stop-color:#8AB9FD"/>
				<stop  offset="1" style="stop-color:#0056E9"/>
			</linearGradient>
			<path style="fill:url(#SVGID_00000017510835612281786580000018134226253221326983_);" d="M239.897,131.341l-43.43,12.634
				c-1.9,0.553-3.876-0.542-4.425-2.431l-4.084-14.04l10.442-25.572c1.065-2.607,4.402-3.388,6.521-1.518L239.897,131.341z"/>
			<path style="fill:#FFFFFF;stroke:#1C1C23;stroke-linecap:round;stroke-linejoin:round;stroke-miterlimit:10;" d="
				M251.522,115.739l2.28,7.839c0.548,1.885-0.545,3.877-2.431,4.425l-27.458,7.988l10.61-27.646
				c0.821-2.14,3.467-2.893,5.292-1.506L251.522,115.739z"/>
			
				<linearGradient id="SVGID_00000170245646537333814840000002604210702609531577_" gradientUnits="userSpaceOnUse" x1="218.9453" y1="67.7653" x2="242.9454" y2="147.6806">
				<stop  offset="0" style="stop-color:#8AB9FD"/>
				<stop  offset="1" style="stop-color:#0056E9"/>
			</linearGradient>
			<path style="fill:url(#SVGID_00000170245646537333814840000002604210702609531577_);" d="M230.225,83.12
				c0.985,3.387-0.962,6.931-4.349,7.917c-3.387,0.985-6.931-0.962-7.916-4.349c-0.985-3.387,0.962-6.931,4.349-7.916
				C225.695,77.786,229.24,79.733,230.225,83.12z"/>
			<path style="fill:none;stroke:#000000;stroke-linecap:round;stroke-linejoin:round;stroke-miterlimit:10;" d="M237.827,68.662
				l15.975,54.916c0.549,1.889-0.542,3.876-2.431,4.425l-54.905,15.972c-1.9,0.553-3.876-0.542-4.425-2.431l-15.975-54.916
				c-0.549-1.889,0.531-3.873,2.431-4.425l54.905-15.972C235.291,65.682,237.278,66.773,237.827,68.662z"/>
		</g>
	</g>
	<g>
		<g>
			
				<ellipse transform="matrix(0.1613 -0.9869 0.9869 0.1613 262.2033 668.1163)" style="fill:#1C1C23;" cx="524.176" cy="179.796" rx="21.531" ry="21.531"/>
			
				<linearGradient id="SVGID_00000005966891217829240580000015269366572090411423_" gradientUnits="userSpaceOnUse" x1="526.1824" y1="168.662" x2="526.1824" y2="191.3387">
				<stop  offset="0" style="stop-color:#E4816F"/>
				<stop  offset="1" style="stop-color:#E25E52"/>
			</linearGradient>
			<path style="fill:url(#SVGID_00000005966891217829240580000015269366572090411423_);" d="M533.684,177.743l-12.303-8.09
				c-1.634-1.074-3.807,0.098-3.807,2.053v16.18c0,1.955,2.173,3.127,3.807,2.053l12.303-8.09
				C535.16,180.878,535.16,178.713,533.684,177.743z"/>
		</g>
		<g>
			<g>
				
					<path style="fill:#FFFFFF;stroke:#000000;stroke-width:1.4157;stroke-linecap:round;stroke-linejoin:round;stroke-miterlimit:10;" d="
					M629.566,292.773l-76.662-0.012c-2.192,0-3.969-1.778-3.969-3.97l0.008-51.689c0-2.193,1.778-3.969,3.97-3.969l76.661,0.012
					c2.193,0,3.969,1.778,3.969,3.97l-0.008,51.69C633.536,290.997,631.758,292.774,629.566,292.773z"/>
				
					<line style="fill:none;stroke:#000000;stroke-width:1.4157;stroke-linecap:round;stroke-linejoin:round;stroke-miterlimit:10;" x1="596.586" y1="259.509" x2="633.537" y2="285.981"/>
				
					<line style="fill:none;stroke:#000000;stroke-width:1.4157;stroke-linecap:round;stroke-linejoin:round;stroke-miterlimit:10;" x1="548.936" y1="285.981" x2="586.925" y2="259.436"/>
				
					<path style="fill:none;stroke:#000000;stroke-width:1.409;stroke-linecap:round;stroke-linejoin:round;stroke-miterlimit:10;" d="
					M555.574,237.332l34.345,24.215c1.131,0.798,2.642,0.798,3.774,0.001l34.352-24.204"/>
				<polygon points="628.045,237.343 596.586,259.509 603.974,264.802 				"/>
				<polygon points="555.466,237.343 586.925,259.509 579.536,264.802 				"/>
			</g>
			<g>
				
					<linearGradient id="SVGID_00000150792470667614343300000007412930394996082837_" gradientUnits="userSpaceOnUse" x1="630.1801" y1="245.429" x2="630.1801" y2="221.0346">
					<stop  offset="0" style="stop-color:#53B0B1"/>
					<stop  offset="1" style="stop-color:#6ACAD8"/>
				</linearGradient>
				<path style="fill:url(#SVGID_00000150792470667614343300000007412930394996082837_);" d="M642.286,234.759
					c0,6.686-5.42,12.106-12.106,12.106c-6.686,0-12.106-5.42-12.106-12.106c0-6.686,5.42-12.106,12.106-12.106
					C636.866,222.652,642.286,228.072,642.286,234.759z"/>
				<path style="fill:#FFFFFF;" d="M628.931,240.458c-0.004,0-0.008,0-0.011,0c-0.324-0.004-0.631-0.146-0.843-0.391l-4.613-5.336
					c-0.407-0.471-0.355-1.185,0.116-1.591c0.472-0.408,1.184-0.357,1.593,0.115l3.776,4.367l6.296-6.991
					c0.415-0.464,1.13-0.499,1.594-0.085c0.464,0.418,0.501,1.131,0.084,1.595l-7.152,7.943
					C629.556,240.323,629.251,240.458,628.931,240.458z"/>
			</g>
		</g>
		<g>
			
				<ellipse transform="matrix(0.2914 -0.9566 0.9566 0.2914 -125.3615 349.6321)" style="fill:#FFFFFF;" cx="173.324" cy="259.436" rx="21.874" ry="21.874"/>
			<path d="M185.222,254.393l-4.488,2.591v-3.421c0-1.116-0.904-2.02-2.02-2.02h-17.019c-1.116,0-2.02,0.905-2.02,2.02v11.744
				c0,1.116,0.904,2.02,2.02,2.02h17.019c1.116,0,2.02-0.904,2.02-2.02v-3.421l4.488,2.591c0.778,0.449,1.751-0.112,1.751-1.011
				v-8.063C186.973,254.506,186,253.944,185.222,254.393z"/>
		</g>
		<g>
			<g>
				
					<linearGradient id="SVGID_00000183955990414378280480000008903736251724993695_" gradientUnits="userSpaceOnUse" x1="602.8532" y1="370.3397" x2="613.801" y2="336.4581">
					<stop  offset="0" style="stop-color:#53B0B1"/>
					<stop  offset="1" style="stop-color:#6ACAD8"/>
				</linearGradient>
				<path style="fill:url(#SVGID_00000183955990414378280480000008903736251724993695_);" d="M602.877,376.012
					c0,0-5.782-24.663,14.478-42.663C617.354,333.349,614.274,354.681,602.877,376.012z"/>
				
					<linearGradient id="SVGID_00000106130241287297747230000009150072547765419411_" gradientUnits="userSpaceOnUse" x1="584.5598" y1="369.0765" x2="560.8679" y2="329.4211">
					<stop  offset="0" style="stop-color:#53B0B1"/>
					<stop  offset="1" style="stop-color:#6ACAD8"/>
				</linearGradient>
				<path style="fill:url(#SVGID_00000106130241287297747230000009150072547765419411_);" d="M558.216,327.514
					c0,0,7.995,33.383,27.36,47.498C585.576,375.012,588.136,344.046,558.216,327.514z"/>
				
					<path style="fill:none;stroke:#000000;stroke-width:0.75;stroke-linecap:round;stroke-linejoin:round;stroke-miterlimit:10;" d="
					M587.245,385.122c0,0-2.779-33.863-24.864-53.523"/>
				
					<linearGradient id="SVGID_00000053540588983609713870000009234245247613337782_" gradientUnits="userSpaceOnUse" x1="592.1365" y1="358.0509" x2="573.3705" y2="300.8594">
					<stop  offset="0" style="stop-color:#53B0B1"/>
					<stop  offset="1" style="stop-color:#6ACAD8"/>
				</linearGradient>
				<path style="fill:url(#SVGID_00000053540588983609713870000009234245247613337782_);" d="M569.146,300.578
					c0,0,7.315,27.851,23.381,70.223C592.527,370.801,595.189,318.961,569.146,300.578z"/>
				<path d="M598.007,362.429c0,0-8.244-31.309,12.501-61.851C610.508,300.578,607.747,344.422,598.007,362.429z"/>
				
					<path style="fill:none;stroke:#000000;stroke-width:0.75;stroke-linecap:round;stroke-linejoin:round;stroke-miterlimit:10;" d="
					M571.859,304.535c0,0,21.429,34.723,21.429,81.702"/>
				
					<path style="fill:none;stroke:#000000;stroke-width:0.75;stroke-linecap:round;stroke-linejoin:round;stroke-miterlimit:10;" d="
					M601.984,385.122c0,0,1.375-27.991,11.843-46.374"/>
				
					<path style="fill:none;stroke:#000000;stroke-width:0.75;stroke-linecap:round;stroke-linejoin:round;stroke-miterlimit:10;" d="
					M597.806,382.152c0,0-2.205-37.532,10.1-75.255"/>
			</g>
			<g>
				
					<linearGradient id="SVGID_00000053520637494706849740000002234028262635223214_" gradientUnits="userSpaceOnUse" x1="645.1189" y1="463.3062" x2="578.1036" y2="396.2909">
					<stop  offset="0" style="stop-color:#E6832C"/>
					<stop  offset="1" style="stop-color:#E9A347"/>
				</linearGradient>
				<path style="fill:url(#SVGID_00000053520637494706849740000002234028262635223214_);" d="M619.923,380.436v51.047
					c0,10.58-6.17,19.72-15.11,24.02h-23.05c-8.94-4.3-15.11-13.44-15.11-24.02v-51.047H619.923z"/>
				<g>
					<defs>
						<path id="SVGID_00000059286021999479881740000014101426056512989109_" d="M619.923,380.436v51.047
							c0,10.58-6.17,19.72-15.11,24.02h-23.05c-8.94-4.3-15.11-13.44-15.11-24.02v-51.047H619.923z"/>
					</defs>
					<clipPath id="SVGID_00000135653708138000004860000015976875368069650584_">
						<use xlink:href="#SVGID_00000059286021999479881740000014101426056512989109_"  style="overflow:visible;"/>
					</clipPath>
					<g style="clip-path:url(#SVGID_00000135653708138000004860000015976875368069650584_);">
						<path style="fill:none;stroke:#000000;stroke-width:2;stroke-linecap:round;stroke-miterlimit:10;" d="M562.14,375.984
							c-5.617,6.233,4.1,13.702,9.889,15.323c8.363,3.712,23.517-3.069,29.583,4.034c1.705,1.997,2.191,4.77,1.558,7.319
							c-1.292,5.199-0.364,7.561,0.454,9.646c2.042,5.204-3.581,10.081-8.458,7.351c-4.474-2.504-6.543-6.941-14.139-6.94
							c-16.834,0.001-12.485,20.843,0.702,19.645c11.608-2.315,11.583-3.41,18.776,4.008c1.35,1.393,3.144,2.344,5.079,2.479
							c10.35,0.718,4.541-20.419,14.256-22.37c5.409,0.803,5.713,9.077,3.874,13.038c-3.51,4.078-7.02,6.004-8.833,10.908
							c-0.731,1.978-1.805,3.834-3.367,5.25c-11.745,10.647-23.897-6.352-37.14-1.453c-3.32,0.561-9.588,5.922-12.15,3.98"/>
						<path style="fill:none;stroke:#000000;stroke-width:2;stroke-linecap:round;stroke-miterlimit:10;" d="M591.84,376.2
							c-1.481,11.907,17.152,7.925,19.987,17.28c0.476,1.433,0.342,2.927,0.074,4.437c-0.967,5.435,3.664,10.449,9.084,9.403
							c1.809-0.349,3.413-1.196,4.394-2.66"/>
					</g>
				</g>
			</g>
		</g>
	</g>
	<g>
		
			<line style="fill:none;stroke:#000000;stroke-linecap:round;stroke-miterlimit:10;" x1="53.368" y1="455.506" x2="696.632" y2="455.506"/>
		
			<line style="fill:none;stroke:#000000;stroke-linecap:round;stroke-miterlimit:10;" x1="566.653" y1="461.91" x2="619.923" y2="461.91"/>
		
			<line style="fill:none;stroke:#000000;stroke-linecap:round;stroke-miterlimit:10;" x1="155.532" y1="461.91" x2="541.886" y2="461.91"/>
	</g>
	<g>
		<g>
			
				<linearGradient id="SVGID_00000173131594331797139220000010224072568022505626_" gradientUnits="userSpaceOnUse" x1="338.5505" y1="52.7961" x2="356.7421" y2="72.5196">
				<stop  offset="0" style="stop-color:#E4816F"/>
				<stop  offset="1" style="stop-color:#E25E52"/>
			</linearGradient>
			<path style="fill:url(#SVGID_00000173131594331797139220000010224072568022505626_);" d="M347.651,49.622
				c-7.2,0-13.04,5.84-13.04,13.05c0,7.2,5.84,13.04,13.04,13.04c7.21,0,13.05-5.84,13.05-13.04
				C360.701,55.462,354.861,49.622,347.651,49.622z M347.651,70.712c-4.44,0-8.04-3.6-8.04-8.04c0-4.45,3.6-8.05,8.04-8.05
				c4.45,0,8.05,3.6,8.05,8.05C355.701,67.112,352.101,70.712,347.651,70.712z"/>
			
				<linearGradient id="SVGID_00000031187226269980447250000017267822978022886308_" gradientUnits="userSpaceOnUse" x1="183.8652" y1="155.3143" x2="186.7358" y2="158.4265">
				<stop  offset="0" style="stop-color:#E4816F"/>
				<stop  offset="1" style="stop-color:#E25E52"/>
			</linearGradient>
			<path style="fill:url(#SVGID_00000031187226269980447250000017267822978022886308_);" d="M187.36,156.872
				c0,1.137-0.922,2.058-2.059,2.058c-1.137,0-2.059-0.922-2.059-2.058c0-1.137,0.922-2.059,2.059-2.059
				C186.439,154.813,187.36,155.735,187.36,156.872z"/>
			
				<linearGradient id="SVGID_00000109723896472703861250000003231069263870314640_" gradientUnits="userSpaceOnUse" x1="468.5361" y1="364.9183" x2="469.0361" y2="364.9183">
				<stop  offset="0" style="stop-color:#8AB9FD"/>
				<stop  offset="1" style="stop-color:#0056E9"/>
			</linearGradient>
			<path style="fill:url(#SVGID_00000109723896472703861250000003231069263870314640_);" d="M654.345,364.918
				c0,1.375-1.115,2.489-2.489,2.489c-1.375,0-2.489-1.115-2.489-2.489c0-1.375,1.115-2.489,2.489-2.489
				C653.23,362.429,654.345,363.544,654.345,364.918z"/>
			
				<linearGradient id="SVGID_00000022518827845621966150000006893512985396011917_" gradientUnits="userSpaceOnUse" x1="543.389" y1="430.016" x2="534.2722" y2="420.8991">
				<stop  offset="0" style="stop-color:#E6832C"/>
				<stop  offset="1" style="stop-color:#E9A347"/>
			</linearGradient>
			<circle style="fill:url(#SVGID_00000022518827845621966150000006893512985396011917_);" cx="536.338" cy="422.965" r="5.548"/>
			
				<linearGradient id="SVGID_00000083057606039814580160000002160478955348446859_" gradientUnits="userSpaceOnUse" x1="560.4175" y1="69.3901" x2="555.791" y2="64.7635">
				<stop  offset="0" style="stop-color:#E6832C"/>
				<stop  offset="1" style="stop-color:#E9A347"/>
			</linearGradient>
			<path style="fill:url(#SVGID_00000083057606039814580160000002160478955348446859_);" d="M559.655,65.812
				c0,1.555-1.261,2.816-2.815,2.816c-1.555,0-2.816-1.261-2.816-2.816c0-1.555,1.261-2.815,2.816-2.815
				C558.394,62.996,559.655,64.257,559.655,65.812z"/>
			<path d="M600.69,155.333c0,1.586-1.286,2.872-2.872,2.872s-2.872-1.286-2.872-2.872c0-1.586,1.286-2.872,2.872-2.872
				S600.69,153.747,600.69,155.333z"/>
			
				<linearGradient id="SVGID_00000024000269736430754020000015869394705742130817_" gradientUnits="userSpaceOnUse" x1="112.784" y1="201.1819" x2="135.3798" y2="239.4798">
				<stop  offset="0" style="stop-color:#8AB9FD"/>
				<stop  offset="1" style="stop-color:#0056E9"/>
			</linearGradient>
			<path style="fill:url(#SVGID_00000024000269736430754020000015869394705742130817_);" d="M119.266,199.975
				c-6.74,0-12.19,5.46-12.19,12.19c0,6.74,5.45,12.19,12.19,12.19c6.73,0,12.19-5.45,12.19-12.19
				C131.456,205.435,125.996,199.975,119.266,199.975z M119.266,222.595c-5.76,0-10.43-4.67-10.43-10.43
				c0-5.76,4.67-10.43,10.43-10.43s10.43,4.67,10.43,10.43C129.696,217.925,125.026,222.595,119.266,222.595z"/>
			<path d="M277.513,48.386c0,1.128-0.914,2.043-2.043,2.043c-1.128,0-2.043-0.915-2.043-2.043c0-1.128,0.915-2.042,2.043-2.042
				C276.599,46.344,277.513,47.258,277.513,48.386z"/>
			<path d="M115.611,115.866c0,1.573-1.275,2.847-2.847,2.847c-1.573,0-2.847-1.275-2.847-2.847c0-1.572,1.275-2.847,2.847-2.847
				C114.336,113.019,115.611,114.293,115.611,115.866z"/>
			
				<linearGradient id="SVGID_00000031174758485878625790000002471582259359164841_" gradientUnits="userSpaceOnUse" x1="656.6246" y1="282.4665" x2="663.1021" y2="289.4894">
				<stop  offset="0" style="stop-color:#E4816F"/>
				<stop  offset="1" style="stop-color:#E25E52"/>
			</linearGradient>
			<path style="fill:url(#SVGID_00000031174758485878625790000002471582259359164841_);" d="M664.512,285.982
				c0,2.565-2.08,4.645-4.645,4.645c-2.565,0-4.645-2.08-4.645-4.645c0-2.566,2.08-4.645,4.645-4.645
				C662.432,281.336,664.512,283.416,664.512,285.982z"/>
			
				<linearGradient id="SVGID_00000044864947861097413460000010639405205087256497_" gradientUnits="userSpaceOnUse" x1="549.7039" y1="311.0995" x2="553.2517" y2="314.9461">
				<stop  offset="0" style="stop-color:#E4816F"/>
				<stop  offset="1" style="stop-color:#E25E52"/>
			</linearGradient>
			<path style="fill:url(#SVGID_00000044864947861097413460000010639405205087256497_);" d="M554.024,313.025
				c0,1.405-1.139,2.544-2.544,2.544c-1.405,0-2.544-1.139-2.544-2.544c0-1.405,1.139-2.544,2.544-2.544
				C552.885,310.481,554.024,311.62,554.024,313.025z"/>
			<path d="M614.018,171.958c0,3.325-2.695,6.02-6.02,6.02s-6.02-2.695-6.02-6.02c0-3.325,2.695-6.02,6.02-6.02
				S614.018,168.633,614.018,171.958z"/>
			
				<linearGradient id="SVGID_00000086676833407247905610000015817476308509590678_" gradientUnits="userSpaceOnUse" x1="477.1036" y1="73.9357" x2="508.5079" y2="112.9995">
				<stop  offset="0" style="stop-color:#8AB9FD"/>
				<stop  offset="1" style="stop-color:#0056E9"/>
			</linearGradient>
			<path style="opacity:0.1;fill:url(#SVGID_00000086676833407247905610000015817476308509590678_);" d="M490.48,80.004
				c0,4.693-3.805,8.498-8.498,8.498c-4.693,0-8.498-3.805-8.498-8.498c0-4.693,3.805-8.498,8.498-8.498
				C486.675,71.505,490.48,75.31,490.48,80.004z"/>
			
				<linearGradient id="SVGID_00000121247442812692924000000018111455912474079881_" gradientUnits="userSpaceOnUse" x1="138.3993" y1="350.0999" x2="155.396" y2="350.0999">
				<stop  offset="0" style="stop-color:#8AB9FD"/>
				<stop  offset="1" style="stop-color:#0056E9"/>
			</linearGradient>
			<path style="opacity:0.1;fill:url(#SVGID_00000121247442812692924000000018111455912474079881_);" d="M155.396,350.1
				c0,4.694-3.805,8.499-8.498,8.499c-4.693,0-8.498-3.805-8.498-8.499c0-4.693,3.805-8.498,8.498-8.498
				C151.591,341.602,155.396,345.406,155.396,350.1z"/>
			
				<linearGradient id="SVGID_00000170242977096219798630000003793481320775365779_" gradientUnits="userSpaceOnUse" x1="114.3176" y1="335.276" x2="126.3814" y2="351.7441">
				<stop  offset="0" style="stop-color:#8AB9FD"/>
				<stop  offset="1" style="stop-color:#0056E9"/>
			</linearGradient>
			<path style="opacity:0.1;fill:url(#SVGID_00000170242977096219798630000003793481320775365779_);" d="M125.917,346.212
				c0,1.982-1.607,3.589-3.589,3.589s-3.589-1.607-3.589-3.589s1.607-3.589,3.589-3.589S125.917,344.23,125.917,346.212z"/>
			
				<linearGradient id="SVGID_00000119113621907261248740000003886698693818590339_" gradientUnits="userSpaceOnUse" x1="614.7031" y1="174.8474" x2="641.5116" y2="208.8047">
				<stop  offset="0" style="stop-color:#8AB9FD"/>
				<stop  offset="1" style="stop-color:#0056E9"/>
			</linearGradient>
			<path style="opacity:0.1;fill:url(#SVGID_00000119113621907261248740000003886698693818590339_);" d="M641.745,200.424
				c0,3.783-3.067,6.85-6.85,6.85c-3.783,0-6.85-3.067-6.85-6.85c0-3.783,3.067-6.85,6.85-6.85
				C638.679,193.574,641.745,196.641,641.745,200.424z"/>
			
				<linearGradient id="SVGID_00000050630444743487139080000017384699378882731921_" gradientUnits="userSpaceOnUse" x1="360.7045" y1="375.3453" x2="440.9051" y2="443.3635">
				<stop  offset="0" style="stop-color:#8AB9FD"/>
				<stop  offset="1" style="stop-color:#0056E9"/>
			</linearGradient>
			<path style="opacity:0.1;fill:url(#SVGID_00000050630444743487139080000017384699378882731921_);" d="M409.08,410.543
				c0,3.797-3.078,6.874-6.874,6.874c-3.796,0-6.874-3.077-6.874-6.874c0-3.796,3.078-6.874,6.874-6.874
				C406.003,403.669,409.08,406.747,409.08,410.543z"/>
			<path d="M92.708,393.768c0,2.46-1.995,4.455-4.455,4.455c-2.46,0-4.455-1.995-4.455-4.455c0-2.461,1.995-4.455,4.455-4.455
				C90.713,389.313,92.708,391.307,92.708,393.768z"/>
		</g>
		<g>
			<g>
				<path d="M112.103,324.706l-3.015-0.35c-1.065-0.124-1.828-1.087-1.705-2.153l1.498-12.898c0.124-1.065,1.087-1.828,2.153-1.705
					l3.015,0.35c1.065,0.124,1.828,1.088,1.705,2.153l-1.498,12.898C114.132,324.067,113.168,324.83,112.103,324.706z"/>
				<path d="M133.724,320.782c-0.74,2.19-2.64,2.11-2.64,2.11s1.349,0.943,0.862,2.217c-0.488,1.275-1.781,1.695-2.818,1.575
					l-8.398-0.976c-1.385-0.161-2.731-0.59-3.927-1.307c-0.078-0.047-0.153-0.091-0.227-0.132c-0.496-0.282-0.768-0.838-0.703-1.405
					l1.415-12.179c0.066-0.567,0.27-1.106,0.594-1.576c0.707-1.026,1.941-2.95,2.068-4.045c0.179-1.544-1.429-6.498,0.32-7.336
					c1.712-0.82,3.987,0.979,4.549,3.15c0.561,2.17-0.409,6.213,0.274,7.075l8.135,0.945c0,0,2.323,0.164,1.993,2.475
					c-0.249,1.749-1.564,2.348-1.564,2.348s1.631,0.462,1.226,2.311c-0.453,2.069-2.031,2.448-2.031,2.448
					S134.257,319.205,133.724,320.782z"/>
			</g>
			<g>
				<path d="M429.907,243.315l-3.715,1.272c-1.313,0.45-2.741-0.25-3.191-1.563l-5.445-15.895c-0.45-1.313,0.25-2.741,1.563-3.191
					l3.715-1.273c1.313-0.45,2.742,0.25,3.191,1.563l5.445,15.895C431.919,241.437,431.219,242.866,429.907,243.315z"/>
				<path d="M452.962,226.674c0.358,2.97-1.906,3.936-1.906,3.936s2.101,0.349,2.243,2.108c0.142,1.76-1.134,2.973-2.411,3.41
					l-10.349,3.545c-1.707,0.585-3.518,0.834-5.313,0.664c-0.117-0.011-0.23-0.02-0.339-0.028c-0.736-0.053-1.365-0.55-1.604-1.248
					l-5.141-15.008c-0.239-0.699-0.301-1.442-0.185-2.171c0.253-1.593,0.621-4.527,0.159-5.877c-0.652-1.903-5.293-6.79-3.718-8.744
					c1.541-1.912,5.202-1.08,7.068,1.141c1.866,2.221,2.988,7.482,4.266,8.108l10.025-3.434c0,0,2.803-1.104,3.708,1.778
					c0.685,2.181-0.517,3.615-0.517,3.615s2.162-0.369,2.72,2.014c0.625,2.668-1.006,3.991-1.006,3.991
					S452.705,224.536,452.962,226.674z"/>
			</g>
		</g>
		<g>
			
				<linearGradient id="XMLID_00000171703126129616867360000013698149057681306293_" gradientUnits="userSpaceOnUse" x1="372.1275" y1="580.4095" x2="372.1275" y2="616.1002" gradientTransform="matrix(0.9666 0.2564 -0.2564 0.9666 106.8334 -528.1633)">
				<stop  offset="0" style="stop-color:#E4816F"/>
				<stop  offset="1" style="stop-color:#E25E52"/>
			</linearGradient>
			
				<path id="XMLID_00000173121963310072372220000011383885290998387598_" style="fill:url(#XMLID_00000171703126129616867360000013698149057681306293_);" d="
				M326.294,138.507c-1.903-2.837-5.084-3.019-7.4-2.409c-2.262,0.596-3.792,2.029-3.792,2.029s-0.618-2.003-2.288-3.641
				c-1.709-1.678-4.562-3.096-7.621-1.575c-7.239,3.599-1.728,18.3,5.174,23.066C318.724,155.257,330.797,145.221,326.294,138.507z"
				/>
			
				<linearGradient id="XMLID_00000015313610532315978520000004642745966206837669_" gradientUnits="userSpaceOnUse" x1="448.7915" y1="-495.0605" x2="448.7915" y2="-474.365" gradientTransform="matrix(0.9022 -0.4313 0.4313 0.9022 0.6353 844.2796)">
				<stop  offset="0" style="stop-color:#E4816F"/>
				<stop  offset="1" style="stop-color:#E25E52"/>
			</linearGradient>
			
				<path id="XMLID_00000155842054457903470460000011137298850503920286_" style="fill:url(#XMLID_00000015313610532315978520000004642745966206837669_);" d="
				M199.649,205.366c-1.906-0.537-3.379,0.578-4.173,1.717c-0.775,1.113-0.912,2.321-0.912,2.321s-1.026-0.652-2.379-0.748
				c-1.385-0.098-3.178,0.348-3.957,2.169c-1.843,4.31,6.115,8.729,10.954,8.239C202.603,215.607,204.161,206.637,199.649,205.366z"
				/>
			
				<linearGradient id="XMLID_00000060747862961934774120000013689483540028134040_" gradientUnits="userSpaceOnUse" x1="642.7833" y1="814.2563" x2="642.7833" y2="834.951" gradientTransform="matrix(0.9619 0.2735 -0.2735 0.9619 88.3629 -809.0804)">
				<stop  offset="0" style="stop-color:#E4816F"/>
				<stop  offset="1" style="stop-color:#E25E52"/>
			</linearGradient>
			
				<path id="XMLID_00000061459616143059255120000013472370082857552052_" style="fill:url(#XMLID_00000060747862961934774120000013689483540028134040_);" d="
				M488.825,155.975c-1.074-1.664-2.916-1.803-4.265-1.473c-1.318,0.322-2.219,1.137-2.219,1.137s-0.338-1.167-1.289-2.135
				c-0.974-0.99-2.613-1.842-4.402-0.992c-4.234,2.012-1.19,10.591,2.763,13.425C484.265,165.608,491.367,159.913,488.825,155.975z"
				/>
		</g>
	</g>
</g>
</svg>
