<?xml version="1.0" encoding="UTF-8" standalone="no"?><svg width="144" height="41" xmlns="http://www.w3.org/2000/svg"><g fill="#069dd9"><path d="M14.354 41.344c-.175-.302.288-1.971 1.009-3.641.83-1.926 3.934-7.663 6.47-11.958 1.406-2.385 2.621-4.296 2.98-4.687l.156-.172.068.197c.167.48.456.653 1.2.72.62.054.944.144 1.351.373.436.245.815.36 1.384.42.86.09 1.71-.083 1.855-.377.092-.187.077-.259-.076-.351-.11-.067-.337-.09-1.167-.117-1.1-.036-1.39-.097-1.463-.308-.055-.163-.427-.274-1.041-.312-.912-.057-1.144-.2-1.346-.825-.098-.307-.134-.358-.287-.417-.223-.086-.842-.156-1.992-.226a17.507 17.507 0 0 1-1.178-.1c-.287-.05-.513-.206-.513-.353 0-.185-.155-.437-.3-.488-.08-.029-.72-.07-1.42-.092-1.191-.037-1.291-.048-1.535-.16-.2-.09-.289-.17-.38-.342-.241-.445-.364-.475-2.337-.569-1.72-.082-1.804-.104-1.893-.494-.04-.172-.1-.274-.204-.346-.14-.097-.246-.105-1.743-.137-2.272-.048-2.637-.099-2.95-.407-.228-.223-.28-.416-.317-1.184l-.034-.682-2.09-.013-2.092-.013-.452-1.191-1.526-.035c-1.359-.032-2.33-.097-2.4-.161-.14-.13.527-.794 1.335-1.33 1.109-.733 2.53-1.232 4.129-1.447 1.987-.268 6.591-.293 9.607-.051 2.65.212 5.035.573 11.15 1.687 3.631.661 4.783.864 5.892 1.035 1.702.264 2.817.342 3.186.223.228-.074.287-.273.119-.4-.18-.134-.423-.186-1.467-.31-.523-.061-.966-.125-.982-.14-.017-.015.18-.415.436-.89.257-.473.773-1.463 1.148-2.2.945-1.858 1.402-2.54 2.387-3.562 1.756-1.82 3.568-2.833 5.87-3.28 1.012-.198 1.964-.28 3.831-.328 2.415-.063 3.6-.184 5.076-.52.995-.226 1.486-.373 2.563-.769 1.405-.516 1.835-.63 1.984-.53.076.051.084.086.04.162-.163.282-1.258 1.14-3.795 2.974-3.042 2.198-5.153 4.296-6.705 6.665-.926 1.412-1.403 2.591-2.02 4.993-.801 3.11-1.417 4.79-2.494 6.798-.982 1.832-1.938 3.106-3.325 4.433a17.804 17.804 0 0 1-4.681 3.2c-.836.385-1.708.7-3.514 1.268-2.683.844-4.143 1.387-5.896 2.194-2.339 1.076-3.953 2.112-5.48 3.517-1.237 1.137-2.055 2.16-3.006 3.761-.451.76-.915 1.4-1.012 1.4-.029 0-.08-.047-.113-.105z"/><path d="M30.22 11.698a32.15 32.15 0 0 1-1.154-.197c-5.818-1.103-10.27-1.803-13.848-2.178-1.548-.162-1.885-.21-2.293-.332-.434-.13-.586-.291-.633-.675-.05-.411-.107-.56-.487-1.269-.187-.349-.356-.71-.374-.8-.106-.522.496-.657 2.713-.606 4.281.098 8.9 1.068 12.515 2.627 1.438.62 3.068 1.65 4.09 2.583.58.528.682.77.372.88-.164.057-.302.052-.901-.033zM51.964 27.244c-.058-3.99-.088-4.745-.19-4.77a5.171 5.171 0 0 0-.45-.055c-.267-.024-.403-.063-.507-.146-.13-.103-.144-.151-.164-.554-.027-.528.05-.849.22-.91.064-.024.257-.069.427-.1.171-.033.376-.111.46-.176.142-.111.157-.161.248-.828.184-1.35.42-1.896 1.081-2.504.595-.548 1.374-.854 2.39-.938.737-.061 1.511.141 1.585.415.053.194-.016.676-.132.917-.135.284-.315.394-.712.437-.622.068-1.138.429-1.45 1.013-.15.283-.175.391-.217.95-.026.346-.04.636-.032.643.008.008.34.04.738.07.944.07 1.053.104 1.13.342.034.102.052.39.042.64-.027.624-.055.648-.857.711-.337.027-.71.06-.832.073l-.22.024-.035 2.168c-.02 1.193-.05 2.8-.07 3.571l-.034 1.402H52zM61.663 29.769c-1.147-.203-2.198-.765-2.86-1.53-.319-.368-.718-1.085-.836-1.502-.284-1.002-.073-2.962.423-3.92.353-.683.822-1.155 1.65-1.66.739-.452.864-.474 2.732-.47 1.452.002 1.61.01 1.914.105.473.146 1.048.513 1.575 1.006.635.595.936 1.095 1.187 1.975.142.498.194 1.576.103 2.15-.171 1.084-.717 2.105-1.485 2.777-.6.525-1.081.765-1.952.974-.64.154-1.851.2-2.451.095zm1.76-1.679c.688-.294 1.257-1.139 1.492-2.211.085-.39.07-1.3-.028-1.712-.257-1.074-1.007-1.86-1.873-1.964-1.146-.137-2.007.496-2.4 1.766-.171.55-.169 1.783.004 2.372.292.994.827 1.598 1.632 1.84.321.098.825.059 1.173-.09zM70.18 27.344c-.002-2.701-.082-5.74-.164-6.157-.04-.202-.04-.31-.002-.345.068-.064 1.19-.052 1.658.017.436.064.538.126.608.37.097.336.202.52.301.526.282.017.423-.052.896-.44.37-.303.682-.46 1.167-.59 1.217-.327 2.475-.115 3.303.554.859.695 1.033 1.566 1.115 5.581.016.805.044 1.76.061 2.122l.032.657H76.46l-.001-1.873c-.003-4.609-.219-5.289-1.703-5.36-.474-.024-.513-.018-.837.13-.45.205-.854.598-.98.955-.085.241-.097.565-.116 3.208l-.021 2.94H70.18zM82.04 25.193v-4.446l.658.035c.77.041 1.142.098 1.308.198.073.044.153.18.205.344.101.322.292.488.537.466.132-.012.176-.047.22-.175.124-.353.598-.633 1.5-.888.428-.12.574-.136 1.262-.14 1.038-.004 1.092.02 1.964.852l.661.632.15-.126.523-.44c.77-.65 1.319-.882 2.204-.93 1.476-.079 2.267.332 2.867 1.49.144.277.29.613.324.746.12.47.16 1.523.162 4.161l.002 2.667H94.17v-2.12c-.002-2.852-.083-3.855-.353-4.338-.137-.244-.515-.595-.747-.693-.24-.101-.697-.12-1.003-.042-.248.064-.73.365-1.128.705l-.306.261-.059 2.853c-.032 1.57-.071 2.97-.087 3.114l-.028.26h-2.344l-.025-2.642c-.027-2.725-.056-3.134-.26-3.638-.51-1.26-2.305-1.233-2.949.045-.27.538-.353 1.396-.405 4.213l-.038 2.022h-2.398zM103.215 29.802a5.265 5.265 0 0 1-2.338-.923c-.84-.617-1.582-1.81-1.722-2.77-.08-.557.015-1.747.194-2.397.074-.27.246-.704.382-.963.21-.397.324-.542.739-.928.433-.403.557-.487 1.054-.71 1.297-.58 3.095-.7 4.455-.295 1.084.322 1.855.944 2.36 1.9.3.567.459 1.113.543 1.862.184 1.63-.368 3.099-1.552 4.125-.699.606-1.34.888-2.409 1.06-.421.068-1.318.088-1.706.039zm1.521-1.73c.42-.174.87-.622 1.13-1.125.343-.658.406-.942.407-1.824.002-.715-.01-.8-.153-1.206-.373-1.052-1.148-1.71-2.073-1.759-.798-.043-1.391.33-1.826 1.148-.35.66-.446 1.073-.446 1.941 0 .84.091 1.258.395 1.814.534.977 1.618 1.405 2.566 1.011zM111.456 25.197v-4.44h.818c.788.002 1.182.043 1.281.134.026.024.06.154.077.29.051.405.074.464.21.547.208.125.414.05.796-.293.618-.555 1.44-.83 2.507-.84.958-.009 1.553.176 2.062.64.987.9 1.157 1.808 1.158 6.183v2.22h-2.63l-.001-2.444c-.001-2.392-.044-3.4-.16-3.768-.087-.279-.54-.705-.943-.889-.31-.14-.38-.154-.69-.131-.662.05-1.362.457-1.576.919-.2.431-.234.885-.264 3.646l-.029 2.667h-2.617zM127.075 29.783a7.04 7.04 0 0 1-1.7-.438c-1.036-.446-1.853-1.281-2.223-2.273-.51-1.37-.252-3.406.589-4.636.282-.414.953-1.008 1.437-1.274a5.283 5.283 0 0 1 3.66-.498c1.385.327 2.318 1.322 2.784 2.969.11.392.139.631.162 1.372l.028.898-2.328.035c-2.685.04-3.637.094-3.911.218-.17.076-.19.108-.205.309-.013.183.016.267.154.46.304.425.966.843 1.687 1.065.391.12.503.132 1.261.132.541 0 1.001-.028 1.315-.082.266-.044.62-.096.789-.114l.305-.033.053.191c.101.359.245 1.254.207 1.288-.066.062-1.712.36-2.285.414a8.691 8.691 0 0 1-1.779-.003zm2.298-5.986c-.027-.568-.127-.79-.518-1.148-.417-.381-1.098-.65-1.647-.65-.448 0-.78.134-1.105.446-.53.511-.96 1.502-.728 1.68.152.117.58.145 2.31.15l1.71.006zM134.716 33.688c-.15-.1-.279-.36-.431-.872-.134-.45-.16-.792-.071-.945.03-.052.27-.197.532-.322.701-.335 1.493-.988 1.89-1.56.084-.12.153-.262.153-.313 0-.123-.63-1.68-1.851-4.577-1.143-2.708-1.691-4.058-1.691-4.16 0-.11.21-.134 1.503-.165l1.207-.03.23.739c1.375 4.407 1.59 5.064 1.692 5.167.16.163.34.144.469-.05.214-.32.62-1.693 1.286-4.354.181-.723.342-1.354.356-1.402.025-.08.138-.086 1.392-.086.815 0 1.365.018 1.365.046 0 .051-1.465 4.009-1.957 5.288-.731 1.9-1.604 3.798-2.186 4.756-.842 1.384-1.63 2.127-2.795 2.638-.583.255-.92.318-1.093.203z"/></g></svg>