<svg xmlns="http://www.w3.org/2000/svg" xml:space="preserve" baseProfile="tiny" viewBox="0 0 841.5 186.4">
  <path fill="#E50914" d="M306.2 89.1c-.3-2.2-1-4.1-2.2-5.9-1.7-2.4-4.4-3.5-8-3.5-5.2 0-8.7 2.6-10.6 7.7-1 2.7-1.5 6.3-1.5 10.8 0 4.3.5 7.7 1.5 10.3 1.8 4.9 5.3 7.3 10.3 7.3 3.6 0 6.1-1 7.6-2.9s2.4-4.4 2.7-7.5h15.6c-.4 4.6-2 9-5 13.2-4.8 6.7-11.9 10-21.3 10s-16.3-2.8-20.7-8.4c-4.4-5.6-6.6-12.8-6.6-21.7 0-10 2.4-17.8 7.3-23.4 4.9-5.6 11.6-8.4 20.3-8.4 7.3 0 13.3 1.6 18 4.9 4.7 3.3 7.4 9.1 8.3 17.4h-15.7zM353 68.2v35.2c0 3.3.4 5.8 1.2 7.5 1.4 3 4.1 4.4 8.2 4.4 5.2 0 8.7-2.1 10.7-6.3 1-2.3 1.5-5.3 1.5-9.1V68.2h15.5v58.4h-14.8v-8.2c-.1.2-.5.7-1.1 1.6-.6.9-1.2 1.7-2 2.4-2.4 2.1-4.7 3.6-6.9 4.4-2.2.8-4.8 1.2-7.8 1.2-8.6 0-14.4-3.1-17.4-9.3-1.7-3.4-2.5-8.5-2.5-15.2V68.2H353zm107.1 7c4.4 5.5 6.5 12.7 6.5 21.4 0 9.1-2.2 16.6-6.5 22.5-4.3 6-10.3 8.9-18 8.9-4.8 0-8.7-1-11.7-2.9-1.8-1.1-3.7-3.1-5.7-6v7.3h-15v-71c0-4.2 3.4-7.6 7.6-7.6 4.2 0 7.6 3.4 7.6 7.6v20.4c1.9-2.7 4.1-4.8 6.4-6.2 2.8-1.8 6.3-2.7 10.6-2.7 7.8 0 13.8 2.8 18.2 8.3zm-12.8 35.6c2.2-3.2 3.3-7.4 3.3-12.5 0-4.1-.5-7.6-1.6-10.3-2.1-5.1-5.8-7.7-11.3-7.7-5.6 0-9.4 2.5-11.5 7.6-1.1 2.7-1.6 6.1-1.6 10.4 0 5 1.1 9.1 3.3 12.4 2.2 3.3 5.6 4.9 10.2 4.9 4-.1 7-1.6 9.2-4.8zm58.5-19.7c2.8-.4 4.9-.8 6.1-1.3 2.2-.9 3.3-2.4 3.3-4.3 0-2.4-.8-4-2.5-5-1.7-.9-4.2-1.4-7.4-1.4-3.7 0-6.2.9-7.8 2.7-1.1 1.3-1.8 3.1-2.2 5.4h-14.7c.3-5.1 1.8-9.3 4.3-12.6 4.1-5.1 11-7.7 20.9-7.7 6.4 0 12.1 1.3 17.1 3.8 5 2.5 7.5 7.3 7.5 14.4v26.8c0 1.9 0 4.1.1 6.7.1 2 .4 3.4.9 4.1.5.7 1.2 1.3 2.2 1.8v2.2H517c-.5-1.2-.8-2.3-1-3.3-.2-1-.3-2.2-.4-3.5-2.1 2.3-4.6 4.2-7.3 5.8-3.3 1.9-7 2.8-11.2 2.8-5.3 0-9.7-1.5-13.2-4.5s-5.2-7.3-5.2-12.8c0-7.2 2.8-12.4 8.4-15.6 3.1-1.7 7.6-3 13.5-3.7l5.2-.8zm9.4 7.1c-1 .6-2 1.1-3 1.5-1 .4-2.4.7-4.1 1l-3.5.6c-3.3.6-5.6 1.3-7 2.1-2.4 1.4-3.6 3.6-3.6 6.5 0 2.6.7 4.5 2.2 5.6 1.5 1.2 3.3 1.7 5.4 1.7 3.3 0 6.4-1 9.2-2.9s4.3-5.4 4.4-10.5v-5.6zm49.6 28.4h-15.3V55.3c0-4.2 3.4-7.6 7.6-7.6 4.2 0 7.6 3.4 7.6 7.6v71.3zm35.9 0h-15.3V55.3c0-4.2 3.4-7.6 7.6-7.6 4.2 0 7.6 3.4 7.6 7.6v71.3zm43.5-35.5c2.8-.4 4.9-.8 6.1-1.3 2.2-.9 3.3-2.4 3.3-4.3 0-2.4-.8-4-2.5-5-1.7-.9-4.2-1.4-7.4-1.4-3.7 0-6.2.9-7.8 2.7-1.1 1.3-1.8 3.1-2.2 5.4H619c.3-5.1 1.8-9.3 4.3-12.6 4.1-5.1 11-7.7 20.9-7.7 6.4 0 12.1 1.3 17.1 3.8 5 2.5 7.5 7.3 7.5 14.4v26.8c0 1.9 0 4.1.1 6.7.1 2 .4 3.4.9 4.1.5.7 1.2 1.3 2.2 1.8v2.2h-16.6c-.5-1.2-.8-2.3-1-3.3-.2-1-.3-2.2-.4-3.5-2.1 2.3-4.6 4.2-7.3 5.8-3.3 1.9-7 2.8-11.2 2.8-5.3 0-9.7-1.5-13.2-4.5s-5.2-7.3-5.2-12.8c0-7.2 2.8-12.4 8.4-15.6 3.1-1.7 7.6-3 13.5-3.7l5.2-.8zm9.3 7.1c-1 .6-2 1.1-3 1.5-1 .4-2.4.7-4.1 1l-3.5.6c-3.3.6-5.6 1.3-7 2.1-2.4 1.4-3.6 3.6-3.6 6.5 0 2.6.7 4.5 2.2 5.6 1.5 1.2 3.3 1.7 5.4 1.7 3.3 0 6.4-1 9.2-2.9s4.3-5.4 4.4-10.5v-5.6zm106.9-29.8c2.5 1 4.8 2.7 6.8 5.2 1.6 2 2.7 4.5 3.3 7.5.4 2 .5 4.8.5 8.6l-.1 36.8h-15.6V89.4c0-2.2-.4-4-1.1-5.5-1.4-2.7-3.9-4.1-7.5-4.1-4.2 0-7.1 1.7-8.7 5.2-.8 1.9-1.2 4.1-1.2 6.7v34.8h-15.4V91.8c0-3.5-.4-6-1.1-7.5-1.3-2.8-3.8-4.2-7.5-4.2-4.4 0-7.3 1.4-8.8 4.2-.8 1.6-1.2 4-1.2 7.2v35.1h-15.5V68.3h14.8v8.5c1.9-3 3.7-5.2 5.4-6.5 3-2.3 6.8-3.4 11.5-3.4 4.5 0 8.1 1 10.8 2.9 2.2 1.8 3.9 4.2 5 7 2-3.4 4.5-5.9 7.4-7.6 3.1-1.6 6.6-2.4 10.5-2.4 2.7.1 5.2.6 7.7 1.6zm53.3 22.7c2.8-.4 4.9-.8 6.1-1.3 2.2-.9 3.3-2.4 3.3-4.3 0-2.4-.8-4-2.5-5-1.7-.9-4.2-1.4-7.4-1.4-3.7 0-6.2.9-7.8 2.7-1.1 1.3-1.8 3.1-2.2 5.4h-14.7c.3-5.1 1.8-9.3 4.3-12.6 4.1-5.1 11-7.7 20.9-7.7 6.4 0 12.1 1.3 17.1 3.8 5 2.5 7.5 7.3 7.5 14.4v26.8c0 1.9 0 4.1.1 6.7.1 2 .4 3.4.9 4.1.5.7 1.2 1.3 2.2 1.8v2.2h-16.6c-.5-1.2-.8-2.3-1-3.3-.2-1-.3-2.2-.4-3.5-2.1 2.3-4.6 4.2-7.3 5.8-3.3 1.9-7 2.8-11.2 2.8-5.3 0-9.7-1.5-13.2-4.5s-5.2-7.3-5.2-12.8c0-7.2 2.8-12.4 8.4-15.6 3.1-1.7 7.6-3 13.5-3.7l5.2-.8zm9.3 7.1c-1 .6-2 1.1-3 1.5-1 .4-2.4.7-4.1 1l-3.5.6c-3.3.6-5.6 1.3-7 2.1-2.4 1.4-3.6 3.6-3.6 6.5 0 2.6.7 4.5 2.2 5.6 1.5 1.2 3.3 1.7 5.4 1.7 3.3 0 6.4-1 9.2-2.9s4.3-5.4 4.4-10.5v-5.6zM0 108.3h19.8v34.5H0zm205.2 0H225v34.5h-19.8zm-69.7 13.5c-2 10.9-11.6 19.1-23 19.1s-21-8.3-23-19.1H77.9c2.1 17.2 16.8 30.6 34.6 30.6s32.5-13.4 34.6-30.6h-11.6zm-45-10.6c6.3 0 11.5-5.1 11.5-11.5 0-6.3-5.1-11.5-11.5-11.5-6.3 0-11.5 5.2-11.5 11.5 0 6.4 5.2 11.5 11.5 11.5zm44 0c6.3 0 11.5-5.1 11.5-11.5 0-6.3-5.2-11.5-11.5-11.5S123 93.4 123 99.7c.1 6.4 5.2 11.5 11.5 11.5z"/>
  <path fill="#E50914" d="M112.5 63.9c28.4 0 51.6 23.1 51.6 51.5S141 167 112.5 167C84.1 167 61 143.9 61 115.4c0-28.4 23.1-51.5 51.5-51.5m0-17.4c-38 0-69 30.9-69 69 0 38 31 69 69 69s69-31 69-69c0-38.1-30.9-69-69-69z"/>
  <path fill="#304582" d="M222.8 89.1C210.9 39.2 166 2 112.5 2S14.2 39.2 2.2 89.1H22c11.4-39.2 47.6-67.9 90.5-67.9 42.8 0 79 28.7 90.5 67.9h19.8z"/>
</svg>